# xmcd
# 
# Track frame offsets:
#     150
#     17720
#     35544
#     52722
#     73570
#     87534
#     105711
#     124304
#     147998
#     174420
#     189564
#     209691
# 
# Disc length: 3089
# 
# Revision: 6
# Processed by: cddbd v1.5.2PL0 Copyright (c) Steve Scherf et al.
# Submitted via: fre:ac v1.0.31
# 
DISCID=ac0c0f0c
DTITLE=Various Artist - Pop 80er - NonPlusUltra - CD5
DYEAR=2007
DGENRE=Pop
TTITLE0=Bangles - Eternal flame
TTITLE1=Marvin Gaye - Sexual healing
TTITLE2=Cindy Lauper - True colors
TTITLE3=Terence Trent D'Arby - Sign your name
TTITLE4=Johnny Logan - Hold me now
TTITLE5=Air Supply - All out of love
TTITLE6=Bill Withers - Lovely day
TTITLE7=Victor Lazlo - Sweet, soft 'n' lazy
TTITLE8=Spandau Ballet - Through the barricades
TTITLE9=REO Speedwagon - Keep on loving you
TTITLE10=Mr. Mister - Kyrie
TTITLE11=Toto - Africa
EXTD=YEAR: 2007
EXTT0=
EXTT1=
EXTT2=
EXTT3=
EXTT4=
EXTT5=
EXTT6=
EXTT7=
EXTT8=
EXTT9=
EXTT10=
EXTT11=
PLAYORDER=
